<svg width="1864" height="57" xmlns="http://www.w3.org/2000/svg"><defs><linearGradient x1="3.247%" y1="50%" x2="100%" y2="50%" id="a"><stop stop-color="#460BEB" stop-opacity=".1" offset="0%"/><stop stop-color="#59D5F5" offset="100%"/></linearGradient></defs><g fill="none" fill-rule="evenodd"><g transform="translate(2 2.973)"><path stroke="#028FF1" stroke-width="2.461" stroke-linecap="square" d="M20.512 10.666h618.632l50.87 41.023h306.034"/><circle stroke="#028FF1" stroke-width="2.461" cx="9.846" cy="9.846" r="9.846"/><path stroke="#028FF1" stroke-width="2.461" d="m11.487 19.691 6.563 7.384h227.27l23.793 25.435h387.424"/><path d="m297.01 21.332 13.127 9.846-13.128 9.845h-13.127l13.127-9.845-13.127-9.846h13.127Zm21.331 0 13.128 9.846-13.128 9.845h-13.127l13.127-9.845-13.127-9.846h13.127Zm21.333 0 13.127 9.846-13.127 9.845h-13.128l13.128-9.845-13.128-9.846h13.128Zm21.332 0 13.127 9.846-13.127 9.845h-13.128l13.128-9.845-13.128-9.846h13.128Zm21.332 0 13.127 9.846-13.127 9.845H369.21l13.128-9.845-13.128-9.846h13.128Zm21.332 0 13.128 9.846-13.128 9.845h-13.127l13.127-9.845-13.127-9.846h13.127Zm21.332 0 13.128 9.846-13.128 9.845h-13.127l13.127-9.845-13.127-9.846h13.127Zm21.332 0 13.128 9.846-13.128 9.845h-13.127l13.127-9.845-13.127-9.846h13.127Zm21.333 0 13.127 9.846-13.127 9.845h-13.128l13.128-9.845-13.128-9.846h13.128Zm21.332 0 13.127 9.846L489 41.023H475.87L489 31.178l-13.128-9.846H489Zm21.332 0 13.127 9.846-13.127 9.845h-13.128l13.128-9.845-13.128-9.846h13.128Zm21.332 0 13.127 9.846-13.127 9.845h-13.127l13.127-9.845-13.127-9.846h13.127Zm21.332 0 13.128 9.846-13.128 9.845h-13.127l13.127-9.845-13.127-9.846h13.127Zm21.332 0 13.128 9.846-13.128 9.845H561.2l13.127-9.845-13.127-9.846h13.127Zm21.332 0 13.128 9.846-13.128 9.845h-13.127l13.127-9.845-13.127-9.846h13.127Zm21.333 0 13.127 9.846-13.127 9.845h-13.128l13.128-9.845-13.128-9.846h13.128Z" fill="url(#a)"/><path fill="#67C5FF" d="M82.047 9.025h70.56v4.923h-70.56z"/></g><g transform="matrix(-1 0 0 1 1862 2.973)"><path stroke="#028FF1" stroke-width="2.461" stroke-linecap="square" d="M20.512 10.666h618.632l50.87 41.023h306.034"/><path d="m296.189 21.332 13.127 9.846-13.127 9.845H283.06l13.128-9.845-13.128-9.846h13.128Zm21.332 0 13.127 9.846-13.127 9.845h-13.128l13.128-9.845-13.128-9.846h13.128Zm21.332 0 13.128 9.846-13.128 9.845h-13.127l13.127-9.845-13.127-9.846h13.127Zm21.332 0 13.128 9.846-13.128 9.845h-13.127l13.127-9.845-13.127-9.846h13.127Zm21.332 0 13.128 9.846-13.128 9.845H368.39l13.127-9.845-13.127-9.846h13.127Zm21.333 0 13.127 9.846-13.127 9.845h-13.128l13.128-9.845-13.128-9.846h13.128Zm21.332 0 13.127 9.846-13.127 9.845h-13.128l13.128-9.845-13.128-9.846h13.128Zm21.332 0 13.127 9.846-13.127 9.845h-13.128l13.128-9.845-13.128-9.846h13.128Zm21.332 0 13.128 9.846-13.128 9.845H453.72l13.127-9.845-13.127-9.846h13.127Zm21.332 0 13.128 9.846-13.128 9.845h-13.127l13.127-9.845-13.127-9.846h13.127Zm21.332 0 13.128 9.846-13.128 9.845h-13.127l13.127-9.845-13.127-9.846h13.127Zm21.333 0 13.127 9.846-13.127 9.845h-13.128l13.128-9.845-13.128-9.846h13.128Zm21.332 0 13.127 9.846-13.127 9.845h-13.128l13.128-9.845-13.128-9.846h13.128Zm21.332 0 13.127 9.846-13.127 9.845h-13.128l13.128-9.845-13.128-9.846h13.128Zm21.332 0 13.127 9.846-13.127 9.845h-13.127l13.127-9.845-13.127-9.846h13.127Zm21.332 0 13.128 9.846-13.128 9.845h-13.127l13.127-9.845-13.127-9.846h13.127Z" fill="url(#a)"/><circle stroke="#028FF1" stroke-width="2.461" cx="9.846" cy="9.846" r="9.846"/><path stroke="#028FF1" stroke-width="2.461" d="m11.487 19.691 6.563 7.384h227.27l23.793 25.435h387.424"/><path fill="#67C5FF" d="M82.047 9.025h70.56v4.923h-70.56z"/></g></g></svg>