<?xml version="1.0" encoding="UTF-8"?>
<svg width="26px" height="118px" viewBox="0 0 26 118" version="1.1" xmlns="http://www.w3.org/2000/svg" xmlns:xlink="http://www.w3.org/1999/xlink">
    <title>蓝色</title>
    <g id="页面-1" stroke="none" stroke-width="1" fill="none" fill-rule="evenodd">
        <g id="应用系统运维监控概览" transform="translate(-312.000000, -438.000000)">
            <g id="内容" transform="translate(40.000000, 92.000000)">
                <g id="系统请求量分析" transform="translate(0.000000, 250.000000)">
                    <g transform="translate(14.500000, 46.000000)" id="柱">
                        <g transform="translate(52.000000, 50.000000)">
                            <g id="蓝色" transform="translate(206.000000, 0.000000)">
                                <polygon id="Path-33" fill="#60BDFF" opacity="0.600000024" points="17.9869143 107.097527 0.927896372 113.794273 7.6710165 116.592761 24.6224314 109.039018"></polygon>
                                <line x1="17.8133148" y1="107.590479" x2="17.8133148" y2="2.19886611" id="Line-12" stroke="#60BDFF" stroke-width="1.4" stroke-linecap="square"></line>
                                <polygon id="Path-29" fill="#60BDFF" opacity="0.600000024" points="7.1606197 116.562675 0.812043829 113.377681 0.812043829 6.0405971 7.1606197 8.06748445"></polygon>
                                <polygon id="Path-31" fill="#60BDFF" opacity="0.600000024" points="24.3926542 1.3893423 7.09704427 8.28532425 7.21083442 116.591777 24.6824649 108.097425"></polygon>
                                <polygon id="Path-33" fill="#60BDFF" points="17.6196294 0.0178491025 0.56061153 6.24062038 7.41276935 8.38993892 24.3824768 1.68937415"></polygon>
                                <path d="M1.50984916,113.844609 C1.50984916,113.844609 3.45453392,114.642552 7.34390344,116.238437" id="Line-13" stroke="#60BDFF" stroke-width="1.4" stroke-linecap="square"></path>
                                <line x1="1.28549694" y1="113.584594" x2="1.28549694" y2="7.34892423" id="Line-12" stroke="#60BDFF" stroke-width="1.4" stroke-linecap="square"></line>
                                <line x1="24.0571571" y1="108.727278" x2="23.7908397" y2="2.83517015" id="Line-12" stroke="#60BDFF" stroke-width="1.4" stroke-linecap="square"></line>
                                <line x1="7.52933925" y1="115.831115" x2="7.52933925" y2="8.73595237" id="Line-12" stroke="#60BDFF" stroke-width="1.4" stroke-linecap="square"></line>
                                <line x1="7.62618193" y1="116.234965" x2="23.8172025" y2="109.00141" id="Line-14" stroke="#60BDFF" stroke-width="1.4" stroke-linecap="square"></line>
                            </g>
                        </g>
                    </g>
                </g>
            </g>
        </g>
    </g>
</svg>