<svg xmlns="http://www.w3.org/2000/svg" width="95" height="103" viewBox="0 0 95 103">
    <g fill="none" fill-rule="evenodd">
        <path fill="#F6F6F6" d="M16.508 23.221c0-.947.786-1.736 1.73-1.736h55.277c.944 0 1.73.79 1.73 1.736v39.93c0 .946-.786 1.735-1.73 1.735H18.316c-.943 0-1.73-.789-1.73-1.736V23.221h-.078"/>
        <path fill="#CCC" d="M73.515 65.28H18.316a2.118 2.118 0 0 1-2.123-2.13V23.616l-.078-.395c0-1.183.943-2.13 2.123-2.13h55.277c1.18 0 2.123.947 2.123 2.13v39.93c0 1.183-.943 2.13-2.123 2.13zM16.98 22.828V63.15c0 .71.629 1.342 1.336 1.342h55.2c.707 0 1.336-.632 1.336-1.342V23.221c0-.71-.63-1.341-1.337-1.341H18.238c-.55 0-1.101.394-1.258.947z"/>
        <path fill="#F6F6F6" d="M11.947 26.851h55.278c.943 0 1.73.79 1.73 1.736v39.929c0 .947-.787 1.736-1.73 1.736H11.947c-.943 0-1.73-.79-1.73-1.736V28.587c0-.947.787-1.736 1.73-1.736z"/>
        <path fill="#CCC" d="M67.225 70.647H11.947a2.118 2.118 0 0 1-2.123-2.131V28.587c0-1.183.944-2.13 2.123-2.13h55.278c1.18 0 2.123.947 2.123 2.13v39.929c0 1.184-.944 2.13-2.123 2.13zM11.947 27.246c-.708 0-1.337.631-1.337 1.341v39.929c0 .71.63 1.341 1.337 1.341h55.278c.708 0 1.336-.63 1.336-1.341V28.587c0-.71-.628-1.341-1.336-1.341H11.947z"/>
        <path fill="#FFF" d="M60.384 33.638H19.496a1.95 1.95 0 0 0-1.966 1.972v28.408c0 .474.157.868.393 1.184v.394h.393c.315.237.708.395 1.18.395h40.888a1.95 1.95 0 0 0 1.966-1.973V35.61a1.95 1.95 0 0 0-1.966-1.972zm-3.617 31.564l3.931-.08c-.078 0-.157.08-.314.08h-3.617z"/>
        <path fill="#CCC" d="M21.855 42.633c0 1.692.824 3.255 2.162 4.1a4.002 4.002 0 0 0 4.325 0c1.338-.845 2.162-2.408 2.162-4.1 0-1.691-.824-3.254-2.162-4.1a4.002 4.002 0 0 0-4.325 0c-1.338.846-2.162 2.409-2.162 4.1"/>
        <path fill="#CCC" d="M60.384 33.559H19.496a1.95 1.95 0 0 0-1.966 1.972V63.94c0 .474.157.868.393 1.184v.394h.393c.315.237.708.395 1.18.395h40.888a1.95 1.95 0 0 0 1.966-1.973V35.531a1.95 1.95 0 0 0-1.966-1.972zm0 31.564h-3.617l3.931-.079c-.157.079-.235.079-.314.079zm1.18-9.075l-8.886-13.651-16.984 15.387-5.74-6.707-11.559 9.864-.079.552V35.531c0-.631.55-1.183 1.18-1.183h40.888c.629 0 1.18.552 1.18 1.183v20.517z"/>
        <path fill="#E4E4E4" d="M.074 16.514v3.867l3.381 1.972 3.303-1.972v-3.867L3.455 14.54.074 16.514M14.149 12.095a1.019 1.019 0 1 0 1.533.889 1.026 1.026 0 0 0-1.022-1.778 1.026 1.026 0 0 0-.511.889M10.61.1l-.707 1.105-1.258.79 1.336.71.55 1.183.787-1.183 1.18-.71-1.18-.71L10.61.1M87.983 62.913c0 1.24.66 2.387 1.73 3.007 1.07.62 2.39.62 3.46 0a3.474 3.474 0 0 0 1.73-3.007c0-1.24-.66-2.386-1.73-3.007a3.45 3.45 0 0 0-3.46 0 3.474 3.474 0 0 0-1.73 3.007M79.098 59.836l3.853-1.894-3.853-1.894v3.788zM84.13 45.71h-1.022v-1.026a.621.621 0 0 0-.629-.631c-.314 0-.629.315-.629.631v1.026h-1.022a.621.621 0 0 0-.63.631c0 .316.315.631.63.631h1.022V48c0 .395.315.632.63.632.314 0 .628-.316.628-.632v-1.026h1.022c.394 0 .63-.315.63-.63a.621.621 0 0 0-.63-.632zM15.8 101.264c0 .959 12.427 1.736 27.757 1.736 15.33 0 27.757-.777 27.757-1.736s-12.428-1.736-27.757-1.736c-15.33 0-27.757.777-27.757 1.736"/>
        <text fill="#666" font-family="PingFangSC-Regular, PingFang SC" font-size="12">
            <tspan x="19" y="90">点击上传</tspan>
        </text>
    </g>
</svg>
