<svg width="1862" height="77" xmlns="http://www.w3.org/2000/svg"><g fill="none" fill-rule="evenodd"><g transform="translate(1 1)"><path stroke="#3481AC" stroke-width="2.243" d="M929.936 74.754H612.233l-14.204-13.456H316.956M0 36.63l24.669 24.668h78.491"/><path d="M54.57 38.124 68.366 51.58h7.883L62.453 38.124H54.57Zm-11.96 0L56.405 51.58h7.883L50.493 38.124H42.61Zm-11.961 0L44.444 51.58h7.884L38.532 38.124H30.65Zm-11.96 0L32.483 51.58h7.883L26.572 38.124h-7.884ZM567.38 38.124l13.796 13.456h7.883l-13.796-13.456h-7.883Zm-11.96 0 13.795 13.456h7.883l-13.795-13.456h-7.883Zm-11.96 0 13.795 13.456h7.883l-13.796-13.456h-7.883Zm-11.961 0 13.795 13.456h7.883l-13.795-13.456h-7.883Z" fill="#3481AC"/><path stroke="#3481AC" stroke-width="2.022" d="m503.84 38.124 13.455 13.456M612.233 0l-14.204 14.203h-94.937L488.89 28.406"/><circle fill="#3481AC" transform="matrix(-1 0 0 1 633.911 0)" cx="316.956" cy="61.298" r="3.738"/><circle fill="#3481AC" transform="matrix(-1 0 0 1 206.32 0)" cx="103.16" cy="61.298" r="3.738"/><circle fill="#3481AC" transform="matrix(-1 0 0 1 976.348 0)" cx="488.174" cy="29.576" r="3.738"/></g><g transform="matrix(-1 0 0 1 1860.871 1)"><path stroke="#3481AC" stroke-width="2.243" d="M929.936 74.754H612.233l-14.204-13.456H316.956M0 36.63l24.669 24.668h78.491"/><path d="M54.57 38.124 68.366 51.58h7.883L62.453 38.124H54.57Zm-11.96 0L56.405 51.58h7.883L50.493 38.124H42.61Zm-11.961 0L44.444 51.58h7.884L38.532 38.124H30.65Zm-11.96 0L32.483 51.58h7.883L26.572 38.124h-7.884ZM567.38 38.124l13.796 13.456h7.883l-13.796-13.456h-7.883Zm-11.96 0 13.795 13.456h7.883l-13.795-13.456h-7.883Zm-11.96 0 13.795 13.456h7.883l-13.796-13.456h-7.883Zm-11.961 0 13.795 13.456h7.883l-13.795-13.456h-7.883Z" fill="#3481AC"/><path stroke="#3481AC" stroke-width="2.022" d="m503.84 38.124 13.455 13.456M612.233 0l-14.204 14.203h-94.937L488.89 28.406"/><circle fill="#3481AC" transform="matrix(-1 0 0 1 633.911 0)" cx="316.956" cy="61.298" r="3.738"/><circle fill="#3481AC" transform="matrix(-1 0 0 1 206.32 0)" cx="103.16" cy="61.298" r="3.738"/><circle fill="#3481AC" transform="matrix(-1 0 0 1 976.348 0)" cx="488.174" cy="29.576" r="3.738"/></g></g></svg>