<?xml version="1.0" encoding="UTF-8"?>
<svg width="1862px" height="77px" viewBox="0 0 1862 77" version="1.1" xmlns="http://www.w3.org/2000/svg" xmlns:xlink="http://www.w3.org/1999/xlink">
    <title>标题</title>
    <g id="页面-1" stroke="none" stroke-width="1" fill="none" fill-rule="evenodd">
        <g id="二期组件规划" transform="translate(-162.000000, -3299.000000)">
            <g id="边框" transform="translate(163.000000, 3300.000000)">
                <g id="左侧">
                    <polyline id="Path-4" stroke="#3481AC" stroke-width="2.2426102" transform="translate(623.445635, 68.025843) scale(-1, -1) translate(-623.445635, -68.025843) " points="316.955575 61.2980121 634.658686 61.2980121 648.861884 74.7536733 929.935696 74.7536733"></polyline>
                    <polyline id="Path-4" stroke="#3481AC" stroke-width="2.2426102" points="1.69970174e-13 36.6292999 24.6687122 61.2980121 103.160069 61.2980121"></polyline>
                    <path d="M40.3669836,38.1243734 L26.571533,51.5800346 L18.6884183,51.5800346 L32.4838689,38.1243734 L40.3669836,38.1243734 Z M52.3275713,38.1243734 L38.5321207,51.5800346 L30.6490061,51.5800346 L44.4444567,38.1243734 L52.3275713,38.1243734 Z M64.288159,38.1243734 L50.4927084,51.5800346 L42.6095938,51.5800346 L56.4050444,38.1243734 L64.288159,38.1243734 Z M76.2487468,38.1243734 L62.4532961,51.5800346 L54.5701815,51.5800346 L68.3656321,38.1243734 L76.2487468,38.1243734 Z" id="Combined-Shape" fill="#3481AC" transform="translate(47.468583, 44.852204) scale(-1, 1) translate(-47.468583, -44.852204) "></path>
                    <path d="M553.177182,38.1243734 L539.381732,51.5800346 L531.498617,51.5800346 L545.294068,38.1243734 L553.177182,38.1243734 Z M565.13777,38.1243734 L551.342319,51.5800346 L543.459205,51.5800346 L557.254655,38.1243734 L565.13777,38.1243734 Z M577.098358,38.1243734 L563.302907,51.5800346 L555.419793,51.5800346 L569.215243,38.1243734 L577.098358,38.1243734 Z M589.058946,38.1243734 L575.263495,51.5800346 L567.38038,51.5800346 L581.175831,38.1243734 L589.058946,38.1243734 Z" id="Combined-Shape" fill="#3481AC" transform="translate(560.278781, 44.852204) scale(-1, 1) translate(-560.278781, -44.852204) "></path>
                    <line x1="503.839758" y1="38.1243734" x2="517.295419" y2="51.5800346" id="Path-4" stroke="#3481AC" stroke-width="2.02159934"></line>
                    <polyline id="Path-4" stroke="#3481AC" stroke-width="2.02159934" transform="translate(550.560804, 14.203198) scale(-1, 1) translate(-550.560804, -14.203198) " points="488.889023 5.31156795e-15 503.092221 14.2031979 598.029386 14.2031979 612.232584 28.4063959"></polyline>
                    <circle id="Oval-3" fill="#3481AC" transform="translate(316.955575, 61.298012) scale(-1, 1) translate(-316.955575, -61.298012) " cx="316.955575" cy="61.2980121" r="3.73768366"></circle>
                    <circle id="Oval-3" fill="#3481AC" transform="translate(103.160069, 61.298012) scale(-1, 1) translate(-103.160069, -61.298012) " cx="103.160069" cy="61.2980121" r="3.73768366"></circle>
                    <circle id="Oval-3-Copy" fill="#3481AC" transform="translate(488.173988, 29.576453) scale(-1, 1) translate(-488.173988, -29.576453) " cx="488.173988" cy="29.5764533" r="3.73768366"></circle>
                </g>
                <g id="左侧" transform="translate(1394.871392, 37.500000) scale(-1, 1) translate(-1394.871392, -37.500000) translate(929.871392, 0.000000)">
                    <polyline id="Path-4" stroke="#3481AC" stroke-width="2.2426102" transform="translate(623.445635, 68.025843) scale(-1, -1) translate(-623.445635, -68.025843) " points="316.955575 61.2980121 634.658686 61.2980121 648.861884 74.7536733 929.935696 74.7536733"></polyline>
                    <polyline id="Path-4" stroke="#3481AC" stroke-width="2.2426102" points="1.69970174e-13 36.6292999 24.6687122 61.2980121 103.160069 61.2980121"></polyline>
                    <path d="M40.3669836,38.1243734 L26.571533,51.5800346 L18.6884183,51.5800346 L32.4838689,38.1243734 L40.3669836,38.1243734 Z M52.3275713,38.1243734 L38.5321207,51.5800346 L30.6490061,51.5800346 L44.4444567,38.1243734 L52.3275713,38.1243734 Z M64.288159,38.1243734 L50.4927084,51.5800346 L42.6095938,51.5800346 L56.4050444,38.1243734 L64.288159,38.1243734 Z M76.2487468,38.1243734 L62.4532961,51.5800346 L54.5701815,51.5800346 L68.3656321,38.1243734 L76.2487468,38.1243734 Z" id="Combined-Shape" fill="#3481AC" transform="translate(47.468583, 44.852204) scale(-1, 1) translate(-47.468583, -44.852204) "></path>
                    <path d="M553.177182,38.1243734 L539.381732,51.5800346 L531.498617,51.5800346 L545.294068,38.1243734 L553.177182,38.1243734 Z M565.13777,38.1243734 L551.342319,51.5800346 L543.459205,51.5800346 L557.254655,38.1243734 L565.13777,38.1243734 Z M577.098358,38.1243734 L563.302907,51.5800346 L555.419793,51.5800346 L569.215243,38.1243734 L577.098358,38.1243734 Z M589.058946,38.1243734 L575.263495,51.5800346 L567.38038,51.5800346 L581.175831,38.1243734 L589.058946,38.1243734 Z" id="Combined-Shape" fill="#3481AC" transform="translate(560.278781, 44.852204) scale(-1, 1) translate(-560.278781, -44.852204) "></path>
                    <line x1="503.839758" y1="38.1243734" x2="517.295419" y2="51.5800346" id="Path-4" stroke="#3481AC" stroke-width="2.02159934"></line>
                    <polyline id="Path-4" stroke="#3481AC" stroke-width="2.02159934" transform="translate(550.560804, 14.203198) scale(-1, 1) translate(-550.560804, -14.203198) " points="488.889023 5.31156795e-15 503.092221 14.2031979 598.029386 14.2031979 612.232584 28.4063959"></polyline>
                    <circle id="Oval-3" fill="#3481AC" transform="translate(316.955575, 61.298012) scale(-1, 1) translate(-316.955575, -61.298012) " cx="316.955575" cy="61.2980121" r="3.73768366"></circle>
                    <circle id="Oval-3" fill="#3481AC" transform="translate(103.160069, 61.298012) scale(-1, 1) translate(-103.160069, -61.298012) " cx="103.160069" cy="61.2980121" r="3.73768366"></circle>
                    <circle id="Oval-3-Copy" fill="#3481AC" transform="translate(488.173988, 29.576453) scale(-1, 1) translate(-488.173988, -29.576453) " cx="488.173988" cy="29.5764533" r="3.73768366"></circle>
                </g>
            </g>
        </g>
    </g>
</svg>